<svg width="416" height="416" viewBox="0 0 416 416" fill="none" xmlns="http://www.w3.org/2000/svg">
  <path
    d="M187.568 134.818V163.227H74.5V134.818H187.568ZM107.455 82.5455H140.977V290.5C140.977 299.97 142.35 307.072 145.097 311.807C147.938 316.447 151.536 319.572 155.892 321.182C160.343 322.697 165.03 323.455 169.955 323.455C173.648 323.455 176.678 323.265 179.045 322.886C181.413 322.413 183.307 322.034 184.727 321.75L191.545 351.864C189.273 352.716 186.1 353.568 182.028 354.42C177.956 355.367 172.795 355.841 166.545 355.841C157.076 355.841 147.795 353.805 138.705 349.733C129.708 345.661 122.227 339.458 116.261 331.125C110.39 322.792 107.455 312.28 107.455 299.591V82.5455ZM332.881 134.818V163.227H219.812V134.818H332.881ZM252.767 82.5455H286.29V290.5C286.29 299.97 287.663 307.072 290.409 311.807C293.25 316.447 296.848 319.572 301.205 321.182C305.655 322.697 310.343 323.455 315.267 323.455C318.96 323.455 321.991 323.265 324.358 322.886C326.725 322.413 328.619 322.034 330.04 321.75L336.858 351.864C334.585 352.716 331.413 353.568 327.341 354.42C323.269 355.367 318.108 355.841 311.858 355.841C302.388 355.841 293.108 353.805 284.017 349.733C275.021 345.661 267.54 339.458 261.574 331.125C255.703 322.792 252.767 312.28 252.767 299.591V82.5455Z"
    fill="#e7e4c1" />
</svg>